<?xml version="1.0" encoding="UTF-8"?>
<svg id="Capa_2" data-name="Capa 2" xmlns="http://www.w3.org/2000/svg" viewBox="0 0 507 629.38">
  <defs>
    <style>
      .cls-1 {
        fill: #8f8f91;
      }

      .cls-2 {
        fill: #748b9a;
      }

      .cls-3 {
        fill: #0c2b49;
      }

      .cls-4 {
        fill: #fcfcfc;
      }

      .cls-5 {
        fill: #0d2a49;
      }

      .cls-6 {
        fill: #102b4a;
      }

      .cls-7 {
        fill: #586d7e;
      }

      .cls-8 {
        fill: #fff;
      }

      .cls-9 {
        fill: #cb1b27;
      }

      .cls-10 {
        fill: #0e508d;
      }

      .cls-11 {
        fill: #0c2b4b;
      }

      .cls-12 {
        fill: #fefffe;
      }

      .cls-13 {
        fill: #fafbfa;
      }

      .cls-14 {
        fill: #728194;
      }

      .cls-15 {
        fill: #fbfbfb;
      }

      .cls-16 {
        fill: #0b2a48;
      }

      .cls-17 {
        fill: #8e8e8e;
      }

      .cls-18 {
        fill: #fffefe;
      }

      .cls-19 {
        fill: #4c6780;
      }

      .cls-20 {
        fill: #95a3b2;
      }

      .cls-21 {
        fill: #ebebeb;
      }

      .cls-22 {
        fill: #728999;
      }

      .cls-23 {
        fill: #f8f9f8;
      }

      .cls-24 {
        fill: #0d457e;
      }

      .cls-25 {
        fill: #abb9c4;
      }

      .cls-26 {
        fill: #738a9a;
      }

      .cls-27 {
        fill: #fefefe;
      }

      .cls-28 {
        fill: #bac7d0;
      }

      .cls-29 {
        fill: #fffffe;
      }

      .cls-30 {
        fill: #1b5283;
      }

      .cls-31 {
        fill: #516b7e;
      }

      .cls-32 {
        fill: #016848;
      }
    </style>
  </defs>
  <g id="Capa_1-2" data-name="Capa 1">
    <g id="Objeto_generativo" data-name="Objeto generativo">
      <path class="cls-27" d="M.96,212.53l1.11.31c4.19,87,15.05,185.88,66.58,263.1,44.43,66.58,112.32,113.59,181.83,151.32l2.48,2.12H0V206.52l.59-.02c.1,2.01.22,4.01.36,6.03Z"/>
      <path class="cls-29" d="M507,211.44v417.94h-251.88s2.47-2.13,2.47-2.13c73.45-39.98,145.28-90.57,188.97-163.06,44.82-74.36,55.85-168.3,58.77-252l1.11-.77c.17-.47.35-.46.55.01Z"/>
      <path class="cls-8" d="M253.36,0c-.38.71-.77,1.4-1.24,2.05s-.92,1.27-1.49,1.76c-24.52,20.91-53.04,36.64-82.49,49.78C116.12,76.82,58.33,91.37,4.78,99.57c.07-.16-.05-.51-.05-.49-.59,13.5-1.47,27.14-2.35,40.64-.06.85-.26,1.69-.49,2.54s-.53,1.69-.85,2.52c-.23,2.09-.37,4.2-.42,6.33l-.62.24L0,0h253.36Z"/>
      <path class="cls-29" d="M254.61,0l252.39.03v143.12c-.16.48-.34.47-.56,0l-1.1-.61c-.29-14.2-1.1-28.49-2.43-42.87-59.36-9.86-120.33-24.98-176.85-52.37-24.98-12.11-47.59-25.63-68.78-43.52-.57-.48-1.01-1.11-1.47-1.75s-.84-1.33-1.21-2.03Z"/>
      <g>
        <path class="cls-3" d="M254.61,0c15.13,13.42,31.83,24.91,49.83,34.87,48.05,26.58,101.42,44.49,155.13,55.67l44.36,8.05,2.3,31.62.21,12.93c.17,2.49.35,5.03.55,7.65v52.99c-.21,2.58-.4,5.12-.55,7.64l-.24,14.64c-1.87,38.88-6.18,77.34-13.63,115.69-13.73,70.73-39.84,129.35-90.19,181.37-10.8,11.16-21.82,21.78-33.78,31.81-35.29,29.6-73.07,53.25-113.48,74.45h-2.17c-37.69-19.63-72.96-41.47-106.41-68.45-21.93-17.68-42.03-37.33-59.98-59.07-31.93-38.68-51.89-81.62-64.42-130.04-4.29-16.59-7.67-32.79-10.39-49.73-3.66-22.77-6.95-45-8.32-68.03l-2.48-41.54c-.1-2.07-.26-4.12-.49-6.15l.46-.35c-.19-5.83-.44-11.77-.92-17.54v-26.22c.34-5.79.69-11.62,1.05-17.49.76-15.32,1.26-30.62,2.9-46.18l23.95-4.14c61.18-10.58,126.94-31.62,180.86-62.67C224.84,22.53,239.72,12.07,253.36,0h1.26Z"/>
        <g>
          <path class="cls-28" d="M0,162.27l.02-10.91c1.37-1.98-.28-5.01,1.04-6.58l-.04,8.21c-.01,2.61-.75,4.96-.4,7.7.09.68-.16,1.44-.62,1.58Z"/>
          <path class="cls-19" d="M.92,206.03l-.47-.27c-.04-2.68-.19-5.34-.45-7.98v-9.29c.58.3.7,1.29.6,2.13-.33,2.74.38,5.09.42,7.7l-.1,7.71Z"/>
          <path class="cls-25" d="M.92,206.03l.03,6.5c-.06-1.04-.85-2.25-.37-3.92.21-.71-.04-1.85-.58-2.09v-8.74c.76.67.64,2.06.55,3.22-.16,2,.33,3.51.37,5.02Z"/>
          <path class="cls-14" d="M507,211.44h-.55s-.02-6.59-.02-6.59c0-.59.21-1,.58-1.05v7.65Z"/>
          <path class="cls-20" d="M507,150.79c-.36-.06-.58-.47-.57-1.05l.02-6.59h.55s0,7.65,0,7.65Z"/>
          <g>
            <path class="cls-10" d="M255.95,6.94c.39.82.08,1.84-.92,3.07l-.21,18.69-1.1.79c-.34.62-.69,1.24-1.12,1.8s-.83,1.1-1.35,1.5c-24.67,18.84-53.57,33.77-82.24,45.93-45.39,19.25-93.82,33.02-142.61,40.32-1.55,25.43-2.13,50.88-1.73,76.35.57,13.96,1.06,27.92,1.46,41.87,43.31-7.6,87.28-12,131.2-14.16l1.25-27.8,1.19-1.39,91.6-23.9.92.89c2.08-.54,3.43.03,2.53,2.29v29.04s-.48,1.11-.48,1.11l-4.07.19-1.94,1.05c-19.75-.25-37.76,3.99-52.48,17.69-4.01,3.74-6.49,8.62-6.19,14.09-25.49,7.99-33.31,36.09-13.78,54.77.25-5.04,1.14-9.92,2.68-14.64,13.31-2.93,28.59,1.63,32.05,16.09,4.71,19.65-11.16,36.79-26.8,46.19,10.55,11.81,21.48,21.82,35.66,30.29,10.23,6.1,20.47,12.14,31.21,17.33l2.97,2.73,1.08.53-.44,13.8c.49,1.73-.21,2.9-1.95,2.05,0,.54-.14.54-.4.04-.49-.98-1.21-1.32-2.15-1.03l-4.68-1.06c-28.69-14.44-61.27-32.07-77.71-60.16-42.27,1.77-85.42,6.39-124.77,10.89,9.77,43.76,27.57,85.65,54.28,121.82,39.17,53.04,96.83,93.02,154.57,125.25l2.3,2.05,1.19.64c-.05,12.44-.08,18.66-.08,18.66-.24,1.35-.49,2.31-2.15,1.93-46.2-23.68-91.02-53.32-128.98-88.75l-16.45-16.45c-10.95-11.69-21.06-23.64-30.44-36.76-31.36-43.86-48.14-91.68-58.23-144.49-6.1-31.95-10.01-64.01-12.15-96.57-3.07-46.71-3.09-93.15,1.15-139.58,49.29-7.65,95.95-19.09,142.05-37.36,36.24-14.5,72.34-32.82,102.31-57.76.69-.58,1.16-1.51,2.17-1.22.54.16,1.07.81,1.77,1.38Z"/>
            <path class="cls-24" d="M252.76,624.49c1.1-.43,1.07-1.55,1.06-2.6l-.14-11.08c-.03-2.71.54-5.34.12-7.54l2.2-1.97c57.86-31.75,114.4-71.28,154.27-124.61,27.12-36.28,45.2-78.22,54.63-122.44-38.99-5.03-83.96-8.51-124.48-10.96-3.11,6.28-7.71,12.07-12.68,17.02-20.61,20.56-47.33,34.4-73.16,46.97-1.53.25-2.93-.06-2.21-1.81.39-.02.83-.23,1-.56.14-.28-.15-.99-.14-1.43l.45-14.38c4.97-3.65,10.38-6.77,16.23-9.38,4.01-1.46,42.72-25.67,43.2-29.17.17-1.26-1.53-10.19-1.92-11.75-2.64-10.6-5.8-20.36-11.17-29.97-.68-2.83,1.44-1.59,3.48.15,8.64,7.37,14.18,22.3,17.7,32.86,5.33-7.45,10.11-14.79,12.84-24.1,4.12-14.05-4.91-32.72-11.75-44.83-.19-.71-.29-1.31-.07-1.49,2.23-1.78,6.89,5.07,8.07,6.85-.03.8,9.77,14.96,9.58,13.71-2.04-13.47-7.71-31.28-14.46-43.26-6.4-11.36-15.06-20.93-25.91-28.22-1.61-1.07-1.03-1.86.27-3.03l6.21-4.55c-6.03,1-12.24.91-18.15-.77-11.29-3.71-22.91-6.71-34.84-7.41l-2.69-1.22c.99-.27,2.22-.06,3.47-.65v-29.82c0-.53.72-1.63-.03-2.04-.3-.17-1.08-.05-1.42-.12-.33-1.2.34-1.57,1.51-1.56,31.65,8.01,63.26,16.36,94.82,25.06.96,9.41,1.58,18.91,1.86,28.48,44.93,3.05,88.5,7.61,130.73,13.66l2.37-61.29c-.28-18.74-.97-37.45-2.09-56.15-50.23-7.18-98.99-22.26-145.76-41.71-28.18-11.72-57.09-27.61-81.25-46.21-.65-.5-.82-.72-.77-1.7l.23-19.59c.01-1.18,1.38-2.13,2-2.95,14.5,11.83,29.75,22.17,46.22,31.27,23.66,13.07,48.06,23.9,73.54,32.99,25.14,9.02,50.42,16.13,76.52,21.81l48.09,8.91c4.52,52.11,4.01,103.09-.1,155.26-4.66,49.5-11.93,99.81-28.54,146.76-14.74,41.65-37.52,79.34-67.67,111.5l-23.5,23.53c-37.28,34.44-81.08,62.55-126.04,85.9-.78.41-1.13-.08-1.71-.38Z"/>
            <g>
              <path class="cls-11" d="M252.3,170.89l-92.62,24.17-1.29,28.9c-44.7,2.29-88.39,7.22-132.76,13.99-2.96-40.27-3.05-79.43.07-119.54,42.43-6.82,83.81-17.87,124.05-33.06,23.53-9.12,46.25-19.41,68.07-31.91,12.65-7.28,24.47-14.93,35.88-23.95.56.02.93.44,1.62.97,24.23,18.73,54.35,34.71,82.73,46.74,46.16,19.56,94.16,33.11,144.09,41.24,1.56,22.32,3.2,44.39,2.28,66.74l-2.18,52.86-44.37-6.15c-29.4-3.83-58.4-6.18-88.43-7.96l-1.49-28.86-92-24.15c-1.46-.65-2.65-.67-3.67-.02Z"/>
              <g>
                <path class="cls-29" d="M395.97,223.33l-.29-25.03,56.37.08-.84,20.76,16.14,1.94c1.47-29.93,1.52-59.38-.35-89.18-35.17-6.24-69.04-15.33-102.44-27.12-28.84-10.18-56.57-22.52-83.04-37.65-9.65-5.63-18.71-11.14-27.55-18.06-4.81,3.68-9.32,6.9-14.54,10.17-58.2,36.46-130.52,60.41-198.56,72.67-1.96,29.72-1.97,59.38-.33,89.14l16.11-1.94-.85-20.78h56.31s-.06,22.97-.06,22.97c0,.91-.26,1.63-.66,2.06-27.29,2.34-54.3,5.97-82.08,10.04-2.47-37.73-2.66-73.83.17-111.69,48.06-7.78,94.76-21.16,139.7-39.81,29.72-12.81,59.13-27.72,84.72-47.43,32.8,24.97,73.33,44.07,112,58.02,36.62,13.21,74.07,23.02,112.53,29.34,1.19,18.98,2.61,37.4,1.97,56.29l-1.86,55.28c-27.73-3.97-55.06-7.46-82.59-10.05Z"/>
                <polygon class="cls-18" points="363.81 220.79 353.23 220.01 351.99 192 292.34 176.38 292.3 160.68 307.33 145.59 339.82 112.96 355.5 118.98 305.86 168.51 309.45 172.04 360.68 120.73 377.04 126.22 327.97 174.99 348.33 180.82 368.08 161.09 452.2 161.12 452.3 173.07 387.08 173.08 368.91 191.35 368.81 220.79 363.81 220.79"/>
                <polygon class="cls-29" points="215.34 176.42 155.87 191.97 154.56 220.11 143.74 220.78 138.96 220.69 138.91 191.18 120.79 173.04 55.61 173.05 55.69 161.13 140.12 161.14 159.33 180.81 179.8 175.11 130.91 126.24 147.12 120.64 198.57 172.13 202.1 168.48 181.65 148.32 152.26 118.79 167.95 113.03 215.4 160.53 215.34 176.42"/>
                <path class="cls-29" d="M268.33,170.01l-12.07-3.26.14-33.47-20.71-20.39v-32.7s15.64-9.74,15.64-9.74l.03,36.63,16.75,16.58,9.02-8.93.08-31.36,13.86,7.55v30.27s-22.2,22.16-22.2,22.16l-.03,25.51c0,.56-.21.99-.52,1.17Z"/>
                <path class="cls-18" d="M233.93,171.51l-13.26,3.48-.34-16.65-47.4-47.43c13.34-5.54,25.86-10.98,38.77-17.55l.08,30.11,22.23,22.28-.08,25.76Z"/>
                <path class="cls-29" d="M286.87,174.91l-12.77-3.39-.25-26.08,22.25-22.15.04-29.87c12.71,6.36,25.27,11.93,38.64,17.45l-47.23,47.41-.2,15.97c0,.35-.23.59-.48.65Z"/>
                <path class="cls-27" d="M132.16,221.77l-14.9,1.07-.25-29.47-61.35.04-.14-15.3,63.35.02,15.16,15.26-.02,27.37c-.57.68-1.27.8-1.85,1.01Z"/>
                <polygon class="cls-12" points="390.74 222.83 389.57 222.84 386.21 222.41 373.71 221.48 373.75 193.58 389.18 178.13 452.33 178.11 452.17 193.41 390.79 193.39 390.74 222.83"/>
                <path class="cls-18" d="M251.33,166.98l-11.4,2.99c-.43.12-1,.04-1.01-.64l-.06-26.01-22.14-21.99.03-30.52,13.94-7.6v31.54s20.74,20.67,20.74,20.67l-.11,31.56Z"/>
                <path class="cls-17" d="M389.57,222.84c-1.13,0-2.43.34-3.35-.43,1.1.08,2.43-.44,3.35.43Z"/>
                <g>
                  <path class="cls-17" d="M395.97,223.33l-5.23-.49c-.42-.06-1.08-.22-1.09-.51-.13-3.65-.51-28.26.43-29.39.28-.33.7-.49,1.1-.64l59.92-.07.14-12.96-.37-.06-61.36.15-14.66,14.67-.04,26.81-1.09.65-8.79-.18c-.56-.01-.94-.25-1.1-.5.21-1.05,1.51-1.46,3.92-1.22l.2-28.52.47-.75,18.22-18.15.85-.18,63.73-.04-.08-9.7-82.57-.08c-6.52,6.67-13.16,13.2-19.93,19.6-6.94-1.66-13.83-3.55-20.69-5.66-.65-.59-.72-1.33-.46-2.16l47.39-47.1-14.13-4.62-50.27,50.34c-2.34.73-5.81-2.8-5.1-5.1l47.96-47.86c-.23-.69-12.75-5.37-13.44-5.16l-46.49,46.67.04,14.46-1.09.8-5.47-1.46-.61-.88c-.07-5.49.09-10.95.48-16.38l46.22-46.5c-12.16-4.75-24.1-10.15-35.73-16.07l-.16,28.56-22.14,22.25.24,24.98-1.09.66-5.77-1.51-.57-.98.15-26.05,22.09-22.25c.07-9.76.02-19.51-.14-29.25-3.91-2.31-7.76-4.29-11.55-5.94l-.19,29.52c-3.02,3.49-6.29,6.63-9.82,9.42l-1.21-.32-16.65-16.65-.27-35.06c-4.57,2.74-9.03,5.59-13.36,8.55l-.02,31.42,20.55,20.4.03,33.27-1.1.65c-1.66-.45-3.31-.2-4.93.23l-1.09-.5.12-30.6-20.59-20.67-.16-30.1c-3.99,2.03-7.9,4.21-11.75,6.53l-.04,29.24,21.99,21.99c.26,9.49.3,18.52.13,27.1l-6,1.54-.73-.04c-.41-8.28-.5-16.7-.27-25.27l-22.08-22.28-.24-28.63c-11.75,5.74-23.7,11.03-35.87,15.9l46.52,46.7.49,16.29-1.08.82-5.33,1.42-1.09-.49-.09-15.1-46.59-46.5c-4.52,1.54-8.91,3.23-13.16,5.08l48.22,48.06c.73,2.35-2.78,5.87-5.1,5.17l-50.81-50.7c-4.68,1.5-9.22,3.15-13.63,4.94l47.24,47.22c.34.9-.05,1.46-.59,2.17-.65.85-19.55,5.76-20.59,5.52-6.63-6.41-13.2-12.93-19.7-19.55l-82.67.03-.07,9.67c21.65-.16,43.25-.05,64.8.36l18.33,18.44.22,28.56c1.8.04,3.03.54,3.69,1.49-.97.83-2.47.31-3.86.41l-7.72.58c-.31-.95.04-1.18.75-1.51l.02-26.22-14.39-14.68c-20.64-.21-41.28-.24-61.93-.09l.12,12.96,59.6.05c1.03,0,1.58.61,1.77,1.59l.24,28.31-1.09.67-5.86.5c-.61-.46-.75-1.16-.43-2.11.2-7.4.1-14.67-.31-21.83h-53.4c.08,6.63.13,13.35.14,20.17l-1.11.67c-.64.38-14.11,1.98-14.83,1.79-2.24-.59-2.93-1.65-2.21-4.62-1.28-28.67-1.75-57.49.89-86.1,75.31-14.82,150.67-39.17,213.88-83.18,62.98,44.16,138.45,68.25,213.68,83.16,1.77,28.26,3.14,57.86.92,86.13.65,2.65.11,3.97-1.89,4.7-.77.28-15.44-1.75-16.06-2.28l-.54-1.1.77-19c-17.97-.38-36.01-.46-54.12-.24l.27,23.17-1.09.67Z"/>
                  <path class="cls-29" d="M346.85,175.2l-9.29-2.69,10.43-10.27,10.96-10.92,23.46-23.43c22.77,7.21,45.4,12.77,68.98,17.47l.58,10.66-85.95.04-19.17,19.13Z"/>
                  <path class="cls-12" d="M141.99,156.12l-86.2-.09.55-10.71c23.52-4.55,46.4-10.23,69.13-17.44l44.59,44.61-8.98,2.61-19.09-18.98Z"/>
                  <path class="cls-12" d="M272.15,112.35c-1.06,1.73-2.5,2.84-3.97,4.19l-11.76-11.52v-34.57s15.65,9.86,15.65,9.86l.08,32.04Z"/>
                </g>
              </g>
            </g>
            <g>
              <g>
                <path class="cls-5" d="M250.29,203.52c12.46.4,24.3,3.18,36.18,7.07,7.42,2.43,14.61,2.36,22.39.64-2.68,3.55-5.86,5.88-9.72,7.78,22.27,14.48,33.26,36.08,39.09,61.16l3.39,14.57c-7.95-4.76-10.7-17.41-18.96-23.28,6.06,10.2,10.81,20.3,12.72,31.81.71,4.29,1.18,8.53.22,12.71-1.6,6.92-4.41,13.12-8.35,18.91l-6.55,9.63c-3.69-14.1-9.77-27.12-20.36-37.15,6.3,11.45,10.67,22.65,12.63,35.22l1.29,8.28c-3.41,3.73-7.43,6.72-11.58,9.7l-17.71,11.86c-10.36,6.17-20.78,11.78-31.29,16.68-12.77-6.49-24.72-12.62-36.36-20.16-6.77-4.51-13.59-8.33-19.3-14.1l-16.07-16.24c15.58-9.08,30.44-24.55,28.19-42.74-1.1-8.91-6.72-15.86-15.49-17.92-4.95-1.44-10.12-1.5-15.41-.75-1.45,5.34-1.94,10.55-2.34,16.28-14.24-11.9-17.9-32.28-5.75-46.35,4.77-5.52,10.79-9.08,17.84-11.3-1.25-3.52,1.36-8.93,4.12-12.15,13.67-15.94,36.75-20.8,57.19-20.15Z"/>
                <g>
                  <path class="cls-22" d="M275.51,373.34l-.81-2.48c6.55-44.98-19.87-90.75-67.06-96.49-4.8-.23-9.58-.64-14.33-1.23l-7.68-.69c5.02-3.11,10.37-4,16.02-4.3,11.71-.63,23.12.9,34.56,3.18,1.5.3,2.6-.15,3.01-1.32s.02-2.55-1.23-3.21c-8.47-4.45-18.83-13.09-17.38-22.64,1.76.19,2.81,1.29,4.02,2.16,3.62,2.6,7.41,4.57,11.94,4.96,9.74.99,18.01-6.86,17.12-16.54,7.46-.69,14.35.45,21.55,2.16-8.19-9.81-20.87-12.8-32.62-10.12-12.88,2.93-22.19,8.94-31.68,11.52-2.6.71-4.65.03-6.25-2.13-3.4-4.58-6-4.53-11.92-2.87,4.16-13.67,21.89-21.4,35.56-24.14,18-3.61,36.31-1.52,53.66,4.31,4.17,1.4,7.88,2.16,12.26,2.73l-4.08,1.94c11.68,6.62,21.29,14.83,28.8,25.65,6.81,10.41,11.67,21.51,14.36,33.87-9.85-14.07-23.11-24.82-39.53-30.7,5.91,4.8,11.37,9.23,16.44,14.88,10.72,11.93,18.06,26.19,21.3,41.96.97,4.73,1,9.11-.42,13.67-1.98,6.35-4.78,12.13-8.93,17.94-4.75-13.69-12.37-25.21-22.86-34.83-7.89-7.23-16.3-13.98-27.11-17.15,23,17.57,34.37,37.81,37.91,66.12-10.68,9.41-22.25,17.31-34.61,23.81Z"/>
                  <path class="cls-7" d="M275.51,373.34l-21.53,11.32c-12.01-5.72-23.47-12.03-34.48-19.05l.6-1.3c12.37-10.82,20.56-28.52,17.9-45.18-2.95-18.47-15.96-29.8-30.83-39.41-.14-.09-.4,0-.7.13-3.75-3.32-8.27-5.39-13.16-6.71,24.42-2.34,47.62,8.63,63.76,27.04,17.4,19.84,21.68,47.58,18.44,73.16Z"/>
                  <path class="cls-26" d="M219.5,365.61c-11.55-7.36-22.41-15.64-31.5-26.21,10.06-6.44,19.63-15.9,23.78-27.07,4.4-10.95,3.2-24.94-5.32-32.48-.07-.28.11-.86.34-.9.29-.06.78.34,1.09.5,21.73,11.28,37.03,33.94,30.01,58.43-2.69,9.38-7.52,17.59-14.14,24.63-1.28,1.36-2.41,2.83-4.26,3.11Z"/>
                  <path class="cls-31" d="M220.16,240.63c-1.77.18-2-.66-.4-1.44,6.64-2.35,12.61-5.65,19.54-7.65l-.95,4.15c-.83,3.6-1.89,6.7-4.54,9.69,3.52,1.28,6.9,1.08,9.93-.72,4.29-2.55,6.38-11.24,1.46-14.48,3.84-.48,7.09-.64,10.97.3l-6.63,1.15c1.02,4.45.54,9.05-2.29,12.07s-6.85,4.38-11.25,3.75c-8.08-1.16-11.72-8.28-15.84-6.81Z"/>
                  <path class="cls-30" d="M219.76,239.18c-.12.54.04.95.4,1.44-6.48,2.31-3.48,12.67,2.36,19.1l-13.27-6.32c-1.13-.54-3.25-1.55-3.51-2.85l-1.93-9.67c2.85,1.5,5.56,1.97,8.52.92l7.42-2.63Z"/>
                  <path class="cls-2" d="M239.39,242.65c1.11-2.18,1.83-4.16,2.18-6.55.21-1.44,1-2.67,2.77-2.39,1.2,3.75-.38,8.07-4.95,8.94Z"/>
                  <g>
                    <path class="cls-22" d="M218.65,262.64c-12.57-1.37-30.57-1.53-39.21,6.96-3.8,3.73-4.86,8.61-5.74,14.28-8.43-10.91-7.67-25.83,1.94-35.68,4.84-4.96,11.31-8.06,18.02-9.71,2.66-.65,4.77.66,5.79,2.97,2.82,6.35,1.05,11.37,5.41,13.73l13.79,7.45Z"/>
                    <path class="cls-6" d="M194.94,252.31l-4.43-1.98c-1.12-.5-2.78-2.4-1.73-3.75,1.1-1.42,4.04-.82,5.31.39s1.82,3.72.85,5.33Z"/>
                  </g>
                </g>
              </g>
              <g>
                <path class="cls-16" d="M249.81,404.49c.75-.81,2,.05,2.15,1.03.1.05.31.04.4-.04.88,1.17,1.88.92,3.17.27,23.84-11.82,49.6-25.39,68.84-43.67,6.16-5.85,11.32-12.1,15.46-19.58l9.1.37c27.97,1.75,55.59,3.25,83.48,6.5l33.79,3.93c-12.37,57.89-37.45,108.26-77.77,150.99-38.39,40.82-85.57,73.51-134.66,98.97-44.09-23.35-85.11-50.66-120.38-84.8l-9.4-9.37c-42.34-42.19-70.18-97.3-82.49-155.92l37.2-4.15c29.72-3.32,59.06-4.93,89.05-6.67,4.54,7.49,9.68,14.26,16.05,20.15,10.26,9.49,21.14,17.17,33.16,24.26,10.76,6.56,21.59,12.33,32.84,17.73Z"/>
                <g>
                  <path class="cls-24" d="M251.96,405.52l-2.15-1.03c.07-.91,1.26-.99,1.77-.68s.35,1.26.38,1.72Z"/>
                  <g>
                    <path class="cls-29" d="M86.43,352.28c5.85,18.63,13.75,36.39,23.55,53.63-2.33,3.2-2.92,6.99-1.11,10.01,2.02,3.37,5.61,5.06,9.88,3.97,7.69,11.76,16.13,22.52,25.76,33.06l-14.64,14.58c-7.77-9.15-14.32-18.62-20.73-28.75-14.25-23.4-24.93-48.29-32.16-75.03l-16.28,1.72c7.25,27.7,17.97,53.82,32.59,78.3,12.7,21.07,27.85,40.1,45.28,57.36,33.37,33.86,73.52,61.34,115.35,83.85,44.91-24.28,86.8-53.45,121.69-90.25,16.3-17.31,30.49-35.99,42.24-56.68,12.88-22.86,22.61-46.99,29.27-72.53l-16.24-1.78c-6.84,25.05-16.66,48.76-29.81,71.15-6.94,11.49-14.28,22.1-23,32.59l-14.87-14.41c9.51-10.32,17.97-21.18,25.87-33.05,4.01.71,7.7-.49,9.68-3.57,2.12-3.29,1.62-7.11-.8-10.48,9.65-17.4,17.72-35.04,23.2-53.71l40.31,4.32c-13.12,57.39-38.81,106.85-79.59,148.82-37.08,38.41-80.76,68.12-127.86,93.42-51.21-27.25-99.62-60.94-138.17-104.39-35.27-39.72-57.49-85.75-69.47-137.85l40.05-4.3Z"/>
                    <path class="cls-18" d="M386.77,349.18l3.34.43,8.91.66c-12.37,33.04-31.55,62.92-56.94,88.66l32.73,32.37c-10.84,12.82-22.61,24.61-35.39,35.86-13.81,12.05-27.97,22.97-43.31,33.29l.03-33.13c15.59-9.08,29.65-19.31,43.01-30.87,3.93,2.16,8.35,1.36,11.03-1.93,2.5-3.06,2.71-7.63-.26-11.06-2.36-2.72-6.92-3.6-10.55-1.54s-5.28,6.23-3.53,10.86c-13.92,12.01-28.62,22.44-44.65,31.56l-.06,39.49-15.02,9.41-.03-59.56c17.09-9.6,32.88-20.28,47.94-32.77,3.92,2.02,8.2,1.48,10.91-1.68s2.67-7.54.2-10.67c-2.56-3.24-6.9-4.15-10.5-2.35-3.8,1.91-5.55,6.34-3.86,10.9-15.29,12.83-31.92,23.79-49.62,33.67l-.03,65.69-14.74,8.4-.05-88.39c31.23-16.38,60.87-36.73,85.43-62.05,18.33-19.32,33.15-41.15,43.8-65.3l1.2.04Z"/>
                    <path class="cls-8" d="M122.47,349.15c9.75,22.5,23.39,43.08,40.07,61.42,24.15,26.55,56.91,49.09,88.94,65.95l-.03,88.4-14.74-8.56v-65.53c-17.41-9.8-33.86-20.66-49.54-33.65,1.41-4.09.15-8.31-3.16-10.47-3.53-2.32-7.97-1.64-10.7,1.19-2.91,3.03-3.23,7.49-.8,10.88s7.08,4.37,11.28,2.1c14.84,12.42,30.69,23.05,47.87,32.79l.03,59.52-15-9.43v-39.38c-15.94-9.22-30.8-19.6-44.72-31.64,1.65-4.38.27-8.49-3.27-10.7s-7.82-1.54-10.61,1.26c-2.97,2.98-3.06,7.55-.78,10.74,2.55,3.57,7.15,4.71,11.34,2.43,13.32,11.53,27.51,21.84,43.11,30.86l-.04,33.13c-19.24-13.13-36.86-26.88-53.39-42.57-8.81-8.63-17.22-16.94-25.27-26.56l32.64-32.47c-25.19-25.63-44.43-55.52-57.01-88.59l8.22-.65,3.92-.41c.39-.23,1.23-.05,1.67-.08Z"/>
                    <path class="cls-18" d="M416.37,351.83c-5.61,17.94-13.56,34.93-22.71,51.81-3.62-.69-7.19.56-8.99,3.25-2.11,3.15-2.18,6.85.29,10.22-7.59,11.44-15.77,22.21-25.34,32.3l-10.65-10.63c24.54-25.45,43.12-55.31,55.22-88.06l12.19,1.12Z"/>
                    <path class="cls-18" d="M103.39,350.77c12.33,32.65,30.86,62.38,55.32,87.94l-10.7,10.71c-9.33-10.19-17.38-20.73-25.03-32.2,2.25-3.13,2.57-6.82.54-9.94-1.92-2.95-5.42-4.43-9.3-3.64-9.17-16.7-17-33.81-22.68-51.73l11.85-1.13Z"/>
                    <path class="cls-1" d="M120.8,349.22c-1.23.72-2.59.3-3.92.41,1.08-.84,2.59-.56,3.92-.41Z"/>
                    <path class="cls-1" d="M390.11,349.61c-1.1-.08-2.42.42-3.34-.43,1.11.04,2.43-.34,3.34.43Z"/>
                    <g>
                      <path class="cls-29" d="M379.1,348.69c.35.14.77.35.91.78-11.83,25.4-27.92,48.24-48.07,67.62-22.93,22.31-49.64,40.02-78.02,55.05-25-13.24-48.78-28.65-69.96-47.53-23.36-20.72-42.3-45.68-55.45-73.95-.4-.87-.56-1.35-.29-1.94l37.61-2.29c2.57,4.93,5.74,8.77,9.26,12.85,8.1,8.91,17.31,16.04,27.3,22.98,16.53,10.87,33.7,20.14,51.55,28.63,16.62-7.97,32.34-16.37,47.73-26.13,8.61-5.78,16.6-11.51,24.11-18.55,6.42-5.96,11.98-12.14,16.23-19.8l37.1,2.27Z"/>
                      <path class="cls-21" d="M285.31,407.41c.43.04,1.08.19,1.09.49.4,9.55.16,19.96-.31,29.15-10.33,7.31-20.86,13.6-32.15,20.03-11.18-6.37-21.89-12.65-32.27-20.04-.49-9.63-.63-19.34-.44-29.12l1.09-.65c10.28,5.51,20.63,10.62,31.67,15.4l31.3-15.27Z"/>
                      <path class="cls-9" d="M286.1,437.05c.15.17-.68.09-.68-.14l-.1-29.5c12.74-6.81,24.58-14.39,36.25-23.01,13.03-9.51,24.13-20.15,34.99-32.9-1.74,8.25-5.14,15.84-9.22,23.17-14.5,26-37.26,45.43-61.23,62.39Z"/>
                      <path class="cls-32" d="M222.34,407.28l.04,29.19c0,.37-.29.62-.7.58-9.4-6.69-18.75-12.83-26.92-21.01l-16.91-16.93c-10.21-10.23-23.65-32.32-26.69-47.62,7.33,8.08,13.83,15.57,21.89,22.41,15.28,12.96,31.81,24.02,49.28,33.39Z"/>
                    </g>
                    <g>
                      <path class="cls-1" d="M128.22,348.73l.95.65c24.49,54.93,72.36,93.84,124.76,121.77,52.6-28.03,100.6-67.1,125.18-122.45l6.47.44c-.03.76-.08,1.52-.21,2.26s-.27,1.45-.56,2.1c-24.46,55.47-74.81,96.01-127.37,123.66l.21,85.75,12.41-7.09c-.17-21.92-.05-43.79.36-65.63,17.31-9.96,33.94-20.99,49.53-33.47-2.35-3.67.09-9.48,4.23-11.47,6.43-3.09,13.84,1.33,13.88,8.5s-7.92,11.97-13.75,8.1c-14.39,12.56-30.57,23-47.1,32.51l.03,56.91,12.8-8.02c-.11-13.19.03-26.36.42-39.51,15.71-9.22,30.5-19.79,44.56-31.35-2.61-4.39.43-10.37,5.42-12.13,6.76-2.38,13.6,2.93,12.71,10.11-.81,6.56-8.49,10.76-13.7,7.01-12.75,11.74-27.21,21.74-42.18,30.46l-.03,30.71c27.83-19.37,54.11-41.27,76.11-67.18l-31.54-31.19c-.7-1.52-.72-2.5,1.09-3.6,11.56-11.93,21.99-24.94,31.03-38.88,9.33-14.38,15.53-28.13,22.48-43.62.64-1.42,1.62-2.63,2.63-3.8l5.16.45c0,.79,0,1.57-.1,2.35s-.19,1.53-.46,2.21c-12.02,31.03-30.21,59.4-53.07,83.54l9.03,9.01c8.86-9.7,17-19.98,24.44-30.85-2.99-2.56-2.38-7.85-.01-11.03,1.93-2.59,6.51-4.55,9.1-3.06,8.42-15.21,14.67-31.27,20.94-47.43.52-1.35,1.42-2.51,2.32-3.62l4.79.43c.08.74.13,1.48.1,2.21s-.08,1.44-.27,2.1c-4.91,16.72-13.25,34.47-22.06,49.49,6,6.61-.79,17.35-9.34,14.77-7.15,11.5-15.74,22.19-24.92,32.13l13.46,13.05c23.61-29.4,40.92-63.75,51.06-100.26,0-2,.8-2.67,2.31-3.06.74-.19,14.45,1.26,15.1,1.65,1.56.93,2.05,1.79.93,3.86-25.07,100.08-105,171.31-193.6,217.77-88.6-46.36-168.68-117.86-193.65-217.88-1.03-1.94-.6-2.82.8-3.77.69-.47,16.2-1.94,16.56-1.18,10.88,37.09,27.36,73.26,52.45,102.63l12.83-12.78c-9.16-10.08-17.38-20.85-24.65-32.3-2.29,1.55-6.37.06-8.47-1.91-3.71-3.47-4.22-9.34-.77-12.78-8.99-15.06-16.91-32.17-22.18-48.93-.23-.74-.32-1.54-.39-2.34s-.06-1.64-.02-2.46l5.11-.39c2.82,4.94,5.1,10.25,6.84,15.92,4.92,11.93,10.38,23.61,16.38,35.05,2.8-1.61,7.5.65,9.43,3.45,2.23,3.24,2.6,8.22-.27,10.74,7.43,10.75,15.48,21,24.13,30.76l9.06-9.07c-22.73-24.19-40.88-52.45-53.1-83.34-.28-.7-.39-1.47-.49-2.25s-.13-1.59-.14-2.39l5.27-.49c1.02,1.17,2.01,2.38,2.66,3.8,7.03,15.46,13.3,29.26,22.65,43.63s20.71,28.01,32.5,40.92l-.29,1.28-31.65,31.49c22.1,25.58,47.99,47.95,76.08,66.89-.16-10.37-.04-20.49.36-30.35-15.17-8.59-29.76-18.73-42.6-30.55-5.2,3.7-12.74-.45-13.66-6.97-1.01-7.22,6.24-12.72,12.96-10.09,4.8,1.88,7.72,7.75,5.15,12.03,14.07,11.59,28.95,22.07,44.61,31.42l.34,1.13v38.21s12.82,8.11,12.82,8.11c-.19-19.25-.08-38.23.3-56.94-16.7-9.26-33.04-19.8-47.36-32.47-5.6,3.86-13.58-.59-13.74-7.81-.14-6.47,6.26-11.32,12.41-9.35,5.12,1.64,8.21,7.63,5.81,12.11,15.62,12.39,32.18,23.44,49.41,33.44l.36,1v64.49s12.42,7.24,12.42,7.24l.18-85.75c-52.11-27.24-102.42-67.99-127.25-123.85-.28-.62-.4-1.31-.51-2.02s-.15-1.44-.16-2.17l5.75-.42Z"/>
                      <g>
                        <circle class="cls-15" cx="164.18" cy="469.2" r="3.45"/>
                        <circle class="cls-4" cx="343.64" cy="469.2" r="3.43"/>
                        <circle class="cls-13" cx="179.33" cy="453.67" r="3.4"/>
                        <circle class="cls-13" cx="328.54" cy="453.69" r="3.39"/>
                        <circle class="cls-23" cx="391.56" cy="411.77" r="3.38"/>
                        <circle class="cls-4" cx="116.3" cy="411.81" r="3.37"/>
                      </g>
                    </g>
                  </g>
                </g>
              </g>
            </g>
          </g>
        </g>
      </g>
    </g>
  </g>
</svg>